<svg width="40" height="44" viewBox="0 0 40 44" fill="none" xmlns="http://www.w3.org/2000/svg">
<path d="M28.657 0.731745C26.4312 0.961263 23.2812 2.71438 21.7172 4.58959C20.8148 5.66393 20.2843 6.68943 19.825 8.23257L19.5953 9.00414L19.6062 9.82454C19.6172 10.2738 19.6445 10.6938 19.6718 10.7621C19.7429 10.9233 19.8797 10.9477 20.8422 10.9526C21.6406 10.9575 21.6898 10.9526 22.3734 10.7719C24.2 10.2982 25.5398 9.58526 26.4914 8.5744C26.7211 8.32535 27.0656 7.99328 27.2461 7.82725C27.8476 7.29985 28.6187 6.12785 29.0453 5.11211C29.4718 4.09149 29.6632 3.14412 29.7179 1.79631L29.7507 0.931963L29.6086 0.804996C29.45 0.663378 29.3625 0.658495 28.657 0.731745Z" fill="#717171"/>
<path d="M28.1484 10.8256C27.0656 10.8745 24.1508 11.5972 22.0562 12.3297C20.7875 12.7741 20.7875 12.7741 20.5359 12.8132C20.0984 12.8766 19.0265 12.5983 17.1836 11.9342C16.2047 11.5874 15.1984 11.3237 13.7109 11.021C13.0875 10.8989 12.0539 10.8842 11.6054 10.9965C11.425 11.0405 10.8562 11.143 10.3422 11.2212C9.23747 11.397 8.61403 11.5679 7.78278 11.9342C5.27263 13.028 3.56091 14.6005 2.20466 17.0617C1.6031 18.1458 1.16013 19.2055 0.832002 20.3335C0.345283 22.0085 0.334346 25.2217 0.810127 27.1702C0.864814 27.4095 0.914033 27.6927 0.914033 27.805C0.914033 28.0394 0.963252 28.2152 1.42263 29.8316C1.84919 31.3259 1.80544 31.2038 2.62028 33.0302C3.76325 35.594 4.12419 36.1604 6.45935 39.0367C7.41638 40.2136 7.9031 40.7508 8.60856 41.3905C9.34685 42.0644 9.94294 42.4551 10.7851 42.8262C11.7367 43.2413 12.1523 43.3341 13.0273 43.3292C14.1484 43.3292 15.0508 43.1241 16.7679 42.4795C17.8508 42.0742 17.9218 42.0546 19.8906 41.6933C20.4812 41.581 21.0281 41.5907 21.8593 41.7128C22.1437 41.7519 22.5703 41.8105 22.8 41.8398C23.2648 41.8984 23.7351 42.0351 24.9492 42.4697C26.4148 42.9971 27.4484 43.2315 28.5312 43.2901C30.1062 43.378 31.6265 42.753 33.2508 41.3612C34.9078 39.9304 36.4554 37.9722 38.0195 35.3303C38.4406 34.6173 39.1133 33.1572 39.2281 32.7177C39.2773 32.5419 39.3593 32.3221 39.4195 32.2342C39.4742 32.1463 39.5234 32.0242 39.5234 31.9705C39.5234 31.7947 39.1242 31.5164 38.4187 31.199C37.0898 30.5885 35.7828 29.5435 34.9023 28.3666C34.2734 27.5218 33.639 26.257 33.4804 25.5099C33.2125 24.2793 33.1359 22.9315 33.289 21.9938C33.3273 21.7497 33.464 21.2369 33.5953 20.8463C34.1586 19.1517 34.5468 18.473 35.4273 17.633C35.6953 17.384 35.914 17.1544 35.914 17.1349C35.914 17.0519 37.2539 16.0508 37.582 15.8897C37.7625 15.7969 37.9922 15.6553 38.0906 15.5674C38.3914 15.3037 38.3476 15.2011 37.5929 14.41C36.5812 13.3503 35.307 12.4811 33.8086 11.8316C32.8734 11.4263 32.2281 11.2261 31.3258 11.06C30.4015 10.8842 29.0234 10.7817 28.1484 10.8256Z" fill="#717171"/>
</svg>
